<svg width="280" height="644" viewBox="0 0 280 644" fill="none" xmlns="http://www.w3.org/2000/svg">
<path d="M11.9902 629.063H269.822V159.972H246.869L239.344 120.026L202.493 74.4406L199.471 14.2444H80.2546L77.6621 74.92L12.6731 154.433L11.9902 629.063Z" fill="white"/>
<path d="M233.372 643.311H0.352539V614.834H256.679V643.324H233.372V643.311ZM256.692 643.16V156.695H279.999V643.147L256.692 643.16ZM0.352539 614.847V586.357H23.6596V614.847H0.352539ZM0.377837 586.357V557.868H23.6849V586.357H0.377837ZM0.377837 557.868V529.379H23.6849V557.868H0.377837ZM0.377837 529.379V500.889H23.6849V529.379H0.377837ZM0.377837 500.889V472.4H23.6849V500.889H0.377837ZM0.377837 472.4V443.91H23.6849V472.4H0.377837ZM0.377837 443.91V415.421H23.6849V443.91H0.377837ZM0.377837 415.421V154.449H23.6849V415.421H0.377837Z" fill="#040405"/>
<path d="M134.858 614.821V586.331H134.871V170.939H0.365234V142.449H23.5584V113.972H46.8654V142.462H140.068V113.972H163.375V142.462V170.951H158.178V586.344H158.152V614.833H134.858V614.821ZM256.692 170.939H233.385V151.685V113.96H256.692V142.449H279.999V170.939H256.692ZM210.065 170.939V142.449H233.372V170.939H210.065ZM186.72 170.939H163.413V142.449H210.015V170.939H186.72Z" fill="#040405"/>
<path d="M279.985 415.405H256.678V443.894H279.985V415.405Z" fill="#040405"/>
<path d="M279.985 443.894H256.678V472.383H279.985V443.894Z" fill="#040405"/>
<path d="M279.997 472.383H256.69V500.872H279.997V472.383Z" fill="#040405"/>
<path d="M279.997 500.872H256.69V529.361H279.997V500.872Z" fill="#040405"/>
<path d="M279.997 529.361H256.69V557.85H279.997V529.361Z" fill="#040405"/>
<path d="M279.997 557.849H256.69V586.339H279.997V557.849Z" fill="#040405"/>
<path d="M279.985 586.343H256.678V614.832H279.985V586.343Z" fill="#040405"/>
<path d="M279.836 614.832H256.529V643.321H279.836V614.832Z" fill="#040405"/>
<path d="M89.5335 269.334H42.9321V240.845H112.841V269.334H89.5335Z" fill="#040405"/>
<path d="M89.5335 304.441H42.9321V275.951H112.841V304.441H89.5335Z" fill="#040405"/>
<path d="M89.5355 309.183H66.2285V337.672H89.5355V309.183Z" fill="#040405"/>
<path d="M66.2392 309.183H42.9321V337.672H66.2392V309.183Z" fill="#040405"/>
<path d="M89.5345 337.595H42.9331V309.106H112.842V337.595H89.5345Z" fill="#040405"/>
<path d="M89.5345 372.698H42.9331V344.208H112.842V372.698H89.5345Z" fill="#040405"/>
<path d="M71.2596 405.929H42.9194V377.44H89.5208V405.929H71.2596Z" fill="#040405"/>
<path d="M163.411 113.97V85.4808H70.208V0H210.012V56.9914V85.4808H186.705V113.97H163.411ZM93.515 56.9914H186.718V28.4894H93.515V56.9914Z" fill="#040405"/>
<path d="M70.1723 85.4802H46.8652V113.97H70.1723V85.4802Z" fill="#040405"/>
<path d="M233.37 85.4794H210.063V113.969H233.37V85.4794Z" fill="#040405"/>
</svg>
