<svg width="274" height="420" viewBox="0 0 274 420" fill="none" xmlns="http://www.w3.org/2000/svg">
<g clip-path="url(#clip0_2001_5726)">
<path d="M112.249 380.153H267.856V96.6738H254.003L249.462 72.5339L227.222 44.9858L225.398 8.60828H153.448L151.883 45.2755L112.661 93.3265L112.249 380.153Z" fill="white"/>
<path d="M245.86 388.762H105.227V371.553H259.926V388.769H245.86V388.762ZM259.934 388.67V94.6915H274V388.662L259.934 388.67ZM105.227 371.56V354.344H119.293V371.56H105.227ZM105.242 354.344V337.127H119.308V354.344H105.242ZM105.242 337.127V319.91H119.308V337.127H105.242ZM105.242 319.91V302.694H119.308V319.91H105.242ZM105.242 302.694V285.477H119.308V302.694H105.242ZM105.242 285.477V268.261H119.308V285.477H105.242ZM105.242 268.261V251.044H119.308V268.261H105.242ZM105.242 251.044V93.3343H119.308V251.044H105.242Z" fill="#040405"/>
<path d="M186.404 371.545V354.328H186.412V103.299H105.234V86.0829H119.232V68.8739H133.298V86.0905H189.549V68.8739H203.615V86.0905V103.307H200.478V354.336H200.463V371.552H186.404V371.545ZM259.934 103.299H245.867V91.6642V68.8663H259.934V86.0829H274V103.299H259.934ZM231.793 103.299V86.0829H245.86V103.299H231.793ZM217.704 103.299H203.638V86.0829H231.763V103.299H217.704Z" fill="#040405"/>
<path d="M273.992 251.036H259.926V268.253H273.992V251.036Z" fill="#040405"/>
<path d="M273.992 268.253H259.926V285.469H273.992V268.253Z" fill="#040405"/>
<path d="M274 285.47H259.934V302.686H274V285.47Z" fill="#040405"/>
<path d="M274 302.686H259.934V319.903H274V302.686Z" fill="#040405"/>
<path d="M274 319.903H259.934V337.119H274V319.903Z" fill="#040405"/>
<path d="M274 337.119H259.934V354.336H274V337.119Z" fill="#040405"/>
<path d="M273.992 354.336H259.926V371.553H273.992V354.336Z" fill="#040405"/>
<path d="M273.901 371.552H259.834V388.769H273.901V371.552Z" fill="#040405"/>
<path d="M159.05 162.765H130.925V145.548H173.116V162.765H159.05Z" fill="#040405"/>
<path d="M159.05 183.977H130.925V166.76H173.116V183.977H159.05Z" fill="#040405"/>
<path d="M159.05 186.844H144.984V204.06H159.05V186.844Z" fill="#040405"/>
<path d="M144.991 186.844H130.925V204.06H144.991V186.844Z" fill="#040405"/>
<path d="M159.05 204.015H130.925V186.798H173.116V204.015H159.05Z" fill="#040405"/>
<path d="M159.05 225.227H130.925V208.01H173.116V225.227H159.05Z" fill="#040405"/>
<path d="M148.021 245.31H130.917V228.094H159.042V245.31H148.021Z" fill="#040405"/>
<path d="M203.638 68.8741V51.6575H147.387V0H231.763V34.4409V51.6575H217.696V68.8741H203.638ZM161.454 34.4409H217.704V17.2166H161.454V34.4409Z" fill="#040405"/>
<path d="M147.365 51.6573H133.298V68.874H147.365V51.6573Z" fill="#040405"/>
<path d="M245.86 51.6573H231.793V68.874H245.86V51.6573Z" fill="#040405"/>
<path d="M103.799 232.554V226.454H59.532V232.554H9.15869V287.452H17.5542V311.851H19.8439V336.25H25.9498V383.523H30.5292V406.397H41.2144V410.21H122.88V406.397H132.039V383.523H136.618V336.25H141.961V311.851H145.014V287.452H153.409V232.554H103.799Z" fill="white"/>
<path d="M36.2077 395.891H27.1558V407.945H36.2077V395.891Z" fill="black"/>
<path d="M44.8857 401.914H35.8337V413.969H44.8857V401.914Z" fill="black"/>
<path d="M53.9375 401.914H44.8856V413.969H53.9375V401.914Z" fill="black"/>
<path d="M62.9895 407.945H53.9376V420H62.9895V407.945Z" fill="black"/>
<path d="M72.0415 407.945H62.9896V420H72.0415V407.945Z" fill="black"/>
<path d="M81.0933 407.945H72.0414V420H81.0933V407.945Z" fill="black"/>
<path d="M90.1453 407.945H81.0934V420H90.1453V407.945Z" fill="black"/>
<path d="M99.1973 407.945H90.1454V420H99.1973V407.945Z" fill="black"/>
<path d="M108.249 407.945H99.197V420H108.249V407.945Z" fill="black"/>
<path d="M117.309 401.914H108.257V413.969H117.309V401.914Z" fill="black"/>
<path d="M126.361 401.914H117.309V413.969H126.361V401.914Z" fill="black"/>
<path d="M36.2077 383.828H27.1558V395.883H36.2077V383.828Z" fill="black"/>
<path d="M31.6817 371.774H22.6298V383.828H31.6817V371.774Z" fill="black"/>
<path d="M31.6817 359.711H22.6298V371.766H31.6817V359.711Z" fill="black"/>
<path d="M27.1557 347.657H18.1038V359.711H27.1557V347.657Z" fill="black"/>
<path d="M27.1557 335.594H18.1038V347.649H27.1557V335.594Z" fill="black"/>
<path d="M22.63 323.54H13.5781V335.595H22.63V323.54Z" fill="black"/>
<path d="M22.63 311.485H13.5781V323.54H22.63V311.485Z" fill="black"/>
<path d="M47.1525 347.565H35.788V355.129H47.1525V347.565Z" fill="#98C5D3"/>
<path d="M58.5171 351.347H47.1526V358.911H58.5171V351.347Z" fill="#98C5D3"/>
<path d="M69.8815 351.347H58.517V358.911H69.8815V351.347Z" fill="#98C5D3"/>
<path d="M81.246 355.129H69.8815V362.692H81.246V355.129Z" fill="#98C5D3"/>
<path d="M92.6106 355.129H81.2461V362.692H92.6106V355.129Z" fill="#98C5D3"/>
<path d="M103.967 351.347H92.6028V358.911H103.967V351.347Z" fill="#98C5D3"/>
<path d="M115.332 351.347H103.967V358.911H115.332V351.347Z" fill="#98C5D3"/>
<path d="M115.416 336.219H47.1526V359.017H115.416V336.219Z" fill="#98C5D3"/>
<path d="M69.8815 336.219H58.517V343.783H69.8815V336.219Z" fill="#98C5D3"/>
<path d="M81.246 332.438H69.8815V340.002H81.246V332.438Z" fill="#98C5D3"/>
<path d="M92.6106 332.438H81.2461V340.002H92.6106V332.438Z" fill="#98C5D3"/>
<path d="M103.967 336.219H92.6028V343.783H103.967V336.219Z" fill="#98C5D3"/>
<path d="M115.332 336.219H103.967V343.783H115.332V336.219Z" fill="#98C5D3"/>
<path d="M126.696 347.565H115.332V355.129H126.696V347.565Z" fill="#98C5D3"/>
<path d="M126.696 340.001H115.332V347.565H126.696V340.001Z" fill="#98C5D3"/>
<path d="M47.1525 340.001H35.788V347.565H47.1525V340.001Z" fill="#98C5D3"/>
<path d="M18.1039 299.423H9.052V311.478H18.1039V299.423Z" fill="black"/>
<path d="M18.1039 287.368H9.052V299.423H18.1039V287.368Z" fill="black"/>
<path d="M13.578 275.306H4.52612V287.36H13.578V275.306Z" fill="black"/>
<path d="M13.578 263.251H4.52612V275.306H13.578V263.251Z" fill="black"/>
<path d="M9.05192 251.189H0V263.243H9.05192V251.189Z" fill="black"/>
<path d="M9.05192 239.134H0V251.189H9.05192V239.134Z" fill="black"/>
<path d="M126.356 407.942L135.408 407.942L135.408 395.888L126.356 395.888L126.356 407.942Z" fill="black"/>
<path d="M126.356 395.888L135.408 395.888L135.408 383.834L126.356 383.834L126.356 395.888Z" fill="black"/>
<path d="M130.883 383.827L139.935 383.827L139.935 371.773L130.883 371.773L130.883 383.827Z" fill="black"/>
<path d="M130.883 371.773L139.935 371.773L139.935 359.719L130.883 359.719L130.883 371.773Z" fill="black"/>
<path d="M135.41 359.712L144.462 359.712L144.462 347.658L135.41 347.658L135.41 359.712Z" fill="black"/>
<path d="M135.41 347.658L144.462 347.658L144.462 335.604L135.41 335.604L135.41 347.658Z" fill="black"/>
<path d="M139.936 335.597L148.988 335.597L148.988 323.542L139.936 323.542L139.936 335.597Z" fill="black"/>
<path d="M139.936 323.535L148.988 323.535L148.988 311.481L139.936 311.481L139.936 323.535Z" fill="black"/>
<path d="M144.463 311.482L153.515 311.482L153.515 299.427L144.463 299.427L144.463 311.482Z" fill="black"/>
<path d="M144.463 299.421L153.515 299.421L153.515 287.366L144.463 287.366L144.463 299.421Z" fill="black"/>
<path d="M148.989 287.367L158.041 287.367L158.041 275.312L148.989 275.312L148.989 287.367Z" fill="black"/>
<path d="M148.989 275.305L158.041 275.305L158.041 263.25L148.989 263.25L148.989 275.305Z" fill="black"/>
<path d="M153.515 263.252L162.567 263.252L162.567 251.197L153.515 251.197L153.515 263.252Z" fill="black"/>
<path d="M153.515 251.19L162.567 251.19L162.567 239.135L153.515 239.135L153.515 251.19Z" fill="black"/>
<path d="M18.1039 227.072H9.052V239.127H18.1039V227.072Z" fill="black"/>
<path d="M27.1557 245.165H18.1038V257.22H27.1557V245.165Z" fill="black"/>
<path d="M18.1039 245.165H9.052V257.22H18.1039V245.165Z" fill="black"/>
<path d="M35.8337 251.189H26.7817V263.243H35.8337V251.189Z" fill="black"/>
<path d="M44.8857 251.189H35.8337V263.243H44.8857V251.189Z" fill="black"/>
<path d="M53.9375 251.189H44.8856V263.243H53.9375V251.189Z" fill="black"/>
<path d="M62.9895 251.189H53.9376V263.243H62.9895V251.189Z" fill="black"/>
<path d="M72.0415 257.22H62.9896V269.274H72.0415V257.22Z" fill="black"/>
<path d="M81.0933 257.22H72.0414V269.274H81.0933V257.22Z" fill="black"/>
<path d="M90.1453 257.22H81.0934V269.274H90.1453V257.22Z" fill="black"/>
<path d="M99.1973 257.22H90.1454V269.274H99.1973V257.22Z" fill="black"/>
<path d="M108.249 251.189H99.197V263.243H108.249V251.189Z" fill="black"/>
<path d="M117.309 251.189H108.257V263.243H117.309V251.189Z" fill="black"/>
<path d="M126.361 251.189H117.309V263.243H126.361V251.189Z" fill="black"/>
<path d="M135.412 251.189H126.36V263.243H135.412V251.189Z" fill="black"/>
<path d="M144.465 245.165H135.413V257.22H144.465V245.165Z" fill="black"/>
<path d="M153.517 245.165H144.465V257.22H153.517V245.165Z" fill="black"/>
<path d="M153.517 227.072H144.465V239.127H153.517V227.072Z" fill="black"/>
<path d="M144.465 227.072H135.413V239.127H144.465V227.072Z" fill="black"/>
<path d="M135.405 221.048H99.197V233.103H135.405V221.048Z" fill="black"/>
<path d="M26.7817 227.072H17.7297V239.127H26.7817V227.072Z" fill="black"/>
<path d="M35.8337 221.048H26.7817V233.103H35.8337V221.048Z" fill="black"/>
<path d="M62.9895 221.048H35.8337V233.103H62.9895V221.048Z" fill="black"/>
<path d="M99.1973 215.017H62.9896V227.072H99.1973V215.017Z" fill="black"/>
<path d="M44.6567 166.287H35.6047V178.342H44.6567V166.287Z" fill="black"/>
<path d="M44.6567 154.233H35.6047V166.287H44.6567V154.233Z" fill="black"/>
<path d="M49.236 190.686H40.1841V202.741H49.236V190.686Z" fill="black"/>
<path d="M49.236 178.632H40.1841V190.686H49.236V178.632Z" fill="black"/>
<path d="M53.8153 215.086H44.7634V227.14H53.8153V215.086Z" fill="black"/>
<path d="M53.8153 203.031H44.7634V215.086H53.8153V203.031Z" fill="black"/>
<path d="M58.3948 238.722H49.3429V250.777H58.3948V238.722Z" fill="black"/>
<path d="M58.3948 226.667H49.3429V238.722H58.3948V226.667Z" fill="black"/>
<path d="M62.9742 263.122H53.9222V275.176H62.9742V263.122Z" fill="black"/>
<path d="M62.9742 251.066H53.9222V263.121H62.9742V251.066Z" fill="black"/>
<path d="M67.5535 286.758H58.5016V298.813H67.5535V286.758Z" fill="black"/>
<path d="M67.5535 274.703H58.5016V286.758H67.5535V274.703Z" fill="black"/>
<path d="M72.1331 311.157H63.0812V323.212H72.1331V311.157Z" fill="black"/>
<path d="M72.1331 299.102H63.0812V311.157H72.1331V299.102Z" fill="black"/>
<path d="M76.7124 335.556H67.6605V347.611H76.7124V335.556Z" fill="black"/>
<path d="M76.7124 323.501H67.6605V335.556H76.7124V323.501Z" fill="black"/>
</g>
<defs>
<clipPath id="clip0_2001_5726">
<rect width="274" height="420" fill="white"/>
</clipPath>
</defs>
</svg>
