<svg width="248" height="825" viewBox="0 0 248 825" fill="none" xmlns="http://www.w3.org/2000/svg">
<path d="M243.445 630.912C240.036 642.745 234.58 649.793 226.259 653.077C217.02 656.728 209.766 655.841 201.212 650.017L197.514 647.492L196.121 651.822C191.988 664.718 186.407 671.143 176.849 673.995C166.131 677.191 158.643 675.593 150.152 668.338L147.038 665.677L145.038 669.289C138.616 680.867 134.001 685.013 125.291 687.035C115.172 689.376 106.035 687.41 96.492 680.835L91.1836 677.183L91.1836 683.743C91.1836 690.015 91.4872 701.641 91.8063 715.112C92.32 736.574 92.9504 763.293 92.9504 782.669C92.9504 800.719 90.2963 811.434 84.3341 817.514C79.7652 822.148 72.9857 824.25 62.9838 824.13C42.8089 823.89 32.1923 811.937 31.4373 788.598C31.157 780.048 29.7015 757.436 28.0047 731.252C25.1948 687.65 21.6922 633.389 21.4353 610.817L21.4353 608.636L19.5128 607.709C11.3557 603.786 6.70112 598.959 3.94574 591.577C1.19037 584.194 0.0539868 573.479 0.162955 555.941C0.217439 549.069 0.16298 542.357 0.0929279 535.965C-0.117229 515.247 -0.288514 497.349 3.35418 482.303C7.24594 466.323 15.2786 455.344 28.6662 447.842L30.5031 446.811C30.5031 446.811 31.6239 5.71484 31.5461 -2.28333C52.3515 -2.74677 83.8981 -3.28211 109.514 -3.71357L120.325 -3.89735C146.906 -4.3448 187.372 -3.24208 204.512 -2.44307C204.512 -1.30849 204.722 436.272 204.722 436.272L207.633 436.871C222.819 440.003 233.957 458.533 240.736 491.939C245.609 515.91 248.053 546.808 247.998 583.682C247.952 605.551 246.551 620.125 243.445 630.912ZM79.625 783.644C79.1892 780.775 77.4145 778.618 73.6162 779.057C68.7126 779.633 54.0017 780.751 47.1055 780.592C44.1478 780.52 43.2137 783.636 43.5873 786.984C43.9609 790.332 46.3427 801.821 49.9854 806.807C53.6281 811.793 57.3174 813.199 64.6262 812.552C71.9349 811.905 76.138 808.669 78.2629 801.877C80.3878 795.086 80.0687 786.528 79.625 783.644Z" fill="black"/>
<path d="M63.7669 805.705C60.1243 806.033 57.6257 805.218 55.0105 802.509C52.3952 799.8 51.0175 793.36 50.7451 790.771C50.4727 788.183 50.8074 787.312 52.9868 787.184C58.8945 786.824 68.9819 786.513 70.3829 786.385C71.784 786.257 73.4964 786.473 73.6521 787.839C73.8078 789.205 73.5275 795.486 71.8307 799.593C70.1339 803.7 67.4096 805.377 63.7669 805.705Z" fill="black"/>
</svg>
